<?xml version="1.0" encoding="UTF-8"?>
<svg xmlns="http://www.w3.org/2000/svg" xmlns:xlink="http://www.w3.org/1999/xlink" width="3000" height="3000" viewBox="0 0 3000 3000">
<rect x="-300" y="-300" width="3600" height="3600" fill="rgb(100%, 100%, 100%)" fill-opacity="1"/>
<path fill="none" stroke-width="3.75" stroke-linecap="butt" stroke-linejoin="round" stroke="rgb(0%, 0%, 0%)" stroke-opacity="1" stroke-miterlimit="4" d="M 18110.390625 15172.1875 L 18158.203125 15172.1875 C 18158.28125 15172.1875 18158.398438 15172.109375 18158.398438 15172.109375 L 18158.398438 15101.601562 C 18158.398438 15101.484375 18158.28125 15101.40625 18158.203125 15101.40625 L 18110.390625 15101.40625 C 18110.390625 15101.40625 18110.3125 15101.484375 18110.3125 15101.601562 L 18110.3125 15172.109375 C 18110.3125 15172.109375 18110.390625 15172.1875 18110.390625 15172.1875 Z M 18110.390625 15172.1875 " transform="matrix(0.1, 0, 0, -0.1, 0, 3000)"/>
<path fill-rule="evenodd" fill="rgb(100%, 100%, 100%)" fill-opacity="1" d="M 2182 1175.050781 C 2182 1327.660156 2061.761719 1451.371094 1913.429688 1451.371094 C 1765.101562 1451.371094 1644.859375 1327.660156 1644.859375 1175.050781 C 1644.859375 1022.441406 1765.101562 898.730469 1913.429688 898.730469 C 2061.761719 898.730469 2182 1022.441406 2182 1175.050781 Z M 2182 1175.050781 "/>
<path fill="none" stroke-width="593.078" stroke-linecap="butt" stroke-linejoin="miter" stroke="rgb(0%, 0%, 0%)" stroke-opacity="1" stroke-miterlimit="4" d="M 22134.50396 -17993.915831 C 22134.50396 -16489.204036 20914.713459 -15269.389167 19410.015909 -15269.389167 C 17905.397609 -15269.389167 16685.607108 -16489.204036 16685.607108 -17993.915831 C 16685.607108 -19498.512081 17905.397609 -20718.288434 19410.015909 -20718.288434 C 20914.713459 -20718.288434 22134.50396 -19498.512081 22134.50396 -17993.915831 Z M 22134.50396 -17993.915831 " transform="matrix(0.0985793, 0, 0, 0.101421, 0, 3000)"/>
<path fill-rule="evenodd" fill="rgb(100%, 100%, 100%)" fill-opacity="1" d="M 1912.859375 1545.121094 C 1794.671875 1545.398438 1681.109375 1592.410156 1595.660156 1676.421875 C 1510.21875 1760.429688 1459.441406 1875.019531 1453.820312 1996.480469 L 2373.050781 1996.480469 C 2367.410156 1874.820312 2316.46875 1760.058594 2230.78125 1676.019531 C 2145.101562 1591.96875 2031.25 1545.101562 1912.859375 1545.121094 Z M 1912.859375 1545.121094 "/>
<path fill="none" stroke-width="593.078" stroke-linecap="butt" stroke-linejoin="miter" stroke="rgb(0%, 0%, 0%)" stroke-opacity="1" stroke-miterlimit="4" d="M 19404.309842 -14344.985876 C 18205.283082 -14342.289812 17053.410617 -13878.797907 16186.603704 -13050.413006 C 15319.915667 -12221.98959 14804.70545 -11092.184742 14747.684415 -9894.631659 L 24072.387027 -9894.631659 C 24015.286741 -11094.187533 23498.491506 -12225.68705 22629.307065 -13054.418587 C 21760.082999 -13882.996063 20605.199 -14345.216967 19404.309842 -14344.985876 Z M 19404.309842 -14344.985876 " transform="matrix(0.0985793, 0, 0, 0.101421, 0, 3000)"/>
<path fill-rule="evenodd" fill="rgb(100%, 100%, 100%)" fill-opacity="1" d="M 2380.238281 1304.769531 C 2380.238281 1457.371094 2260 1581.078125 2111.660156 1581.078125 C 1963.339844 1581.078125 1843.089844 1457.371094 1843.089844 1304.769531 C 1843.089844 1152.160156 1963.339844 1028.449219 2111.660156 1028.449219 C 2260 1028.449219 2380.238281 1152.160156 2380.238281 1304.769531 Z M 2380.238281 1304.769531 "/>
<path fill="none" stroke-width="593.078" stroke-linecap="butt" stroke-linejoin="miter" stroke="rgb(0%, 0%, 0%)" stroke-opacity="1" stroke-miterlimit="4" d="M 24145.416748 -16714.787556 C 24145.416748 -15210.191307 22925.586622 -13990.414954 21421.007947 -13990.414954 C 19916.310397 -13990.414954 18696.48027 -15210.191307 18696.48027 -16714.787556 C 18696.48027 -18219.499352 19916.310397 -19439.31422 21421.007947 -19439.31422 C 22925.586622 -19439.31422 24145.416748 -18219.499352 24145.416748 -16714.787556 Z M 24145.416748 -16714.787556 " transform="matrix(0.0985793, 0, 0, 0.101421, 0, 3000)"/>
<path fill-rule="evenodd" fill="rgb(100%, 100%, 100%)" fill-opacity="1" d="M 2111.089844 1674.828125 C 1992.910156 1675.109375 1879.339844 1722.121094 1793.898438 1806.140625 C 1708.460938 1890.148438 1657.671875 2004.738281 1652.050781 2126.195312 L 2571.28125 2126.195312 C 2565.648438 2004.535156 2514.699219 1889.78125 2429.019531 1805.730469 C 2343.328125 1721.691406 2229.480469 1674.808594 2111.089844 1674.828125 Z M 2111.089844 1674.828125 "/>
<path fill="none" stroke-width="593.078" stroke-linecap="butt" stroke-linejoin="miter" stroke="rgb(0%, 0%, 0%)" stroke-opacity="1" stroke-miterlimit="4" d="M 21415.183005 -13066.088692 C 20216.314746 -13063.315598 19064.28378 -12599.785178 18197.516492 -11771.400277 C 17330.788829 -10943.092407 16815.618238 -9813.210528 16758.597203 -8615.657445 L 26083.418692 -8615.657445 C 26026.199529 -9815.213319 25509.404294 -10946.712836 24640.180228 -11775.405858 C 23770.995787 -12604.09888 22616.111788 -13066.281268 21415.183005 -13066.088692 Z M 21415.183005 -13066.088692 " transform="matrix(0.0985793, 0, 0, 0.101421, 0, 3000)"/>
<path fill-rule="evenodd" fill="rgb(100%, 100%, 100%)" fill-opacity="1" d="M 1443.359375 1175.050781 C 1443.359375 1327.660156 1323.109375 1451.371094 1174.789062 1451.371094 C 1026.460938 1451.371094 906.210938 1327.660156 906.210938 1175.050781 C 906.210938 1022.441406 1026.460938 898.730469 1174.789062 898.730469 C 1323.109375 898.730469 1443.359375 1022.441406 1443.359375 1175.050781 Z M 1443.359375 1175.050781 "/>
<path fill="none" stroke-width="593.078" stroke-linecap="butt" stroke-linejoin="miter" stroke="rgb(0%, 0%, 0%)" stroke-opacity="1" stroke-miterlimit="4" d="M 14641.607062 -17993.915831 C 14641.607062 -16489.204036 13421.81656 -15269.389167 11917.11901 -15269.389167 C 10412.50071 -15269.389167 9192.710209 -16489.204036 9192.710209 -17993.915831 C 9192.710209 -19498.512081 10412.50071 -20718.288434 11917.11901 -20718.288434 C 13421.81656 -20718.288434 14641.607062 -19498.512081 14641.607062 -17993.915831 Z M 14641.607062 -17993.915831 " transform="matrix(0.0985793, 0, 0, 0.101421, 0, 3000)"/>
<path fill-rule="evenodd" fill="rgb(100%, 100%, 100%)" fill-opacity="1" d="M 1174.210938 1545.121094 C 1056.019531 1545.398438 942.460938 1592.410156 857.019531 1676.421875 C 771.578125 1760.429688 720.792969 1875.019531 715.171875 1996.480469 L 1634.398438 1996.480469 C 1628.769531 1874.820312 1577.820312 1760.058594 1492.140625 1676.019531 C 1406.449219 1591.96875 1292.601562 1545.101562 1174.210938 1545.121094 Z M 1174.210938 1545.121094 "/>
<path fill="none" stroke-width="593.078" stroke-linecap="butt" stroke-linejoin="miter" stroke="rgb(0%, 0%, 0%)" stroke-opacity="1" stroke-miterlimit="4" d="M 11911.412944 -14344.985876 C 10712.386183 -14342.289812 9560.434467 -13878.797907 8693.706805 -13050.413006 C 7826.979143 -12221.98959 7311.808552 -11092.184742 7254.787516 -9894.631659 L 16579.490129 -9894.631659 C 16522.389842 -11094.187533 16005.594608 -12225.68705 15136.410167 -13054.418587 C 14267.1861 -13882.996063 13112.302101 -14345.216967 11911.412944 -14344.985876 Z M 11911.412944 -14344.985876 " transform="matrix(0.0985793, 0, 0, 0.101421, 0, 3000)"/>
<path fill-rule="evenodd" fill="rgb(100%, 100%, 100%)" fill-opacity="1" d="M 1156.910156 1304.769531 C 1156.910156 1457.371094 1036.660156 1581.078125 888.335938 1581.078125 C 740.003906 1581.078125 619.761719 1457.371094 619.761719 1304.769531 C 619.761719 1152.160156 740.003906 1028.449219 888.335938 1028.449219 C 1036.660156 1028.449219 1156.910156 1152.160156 1156.910156 1304.769531 Z M 1156.910156 1304.769531 "/>
<path fill="none" stroke-width="593.078" stroke-linecap="butt" stroke-linejoin="miter" stroke="rgb(0%, 0%, 0%)" stroke-opacity="1" stroke-miterlimit="4" d="M 11735.79291 -16714.787556 C 11735.79291 -15210.191307 10516.002409 -13990.414954 9011.384109 -13990.414954 C 7506.686558 -13990.414954 6286.935683 -15210.191307 6286.935683 -16714.787556 C 6286.935683 -18219.499352 7506.686558 -19439.31422 9011.384109 -19439.31422 C 10516.002409 -19439.31422 11735.79291 -18219.499352 11735.79291 -16714.787556 Z M 11735.79291 -16714.787556 " transform="matrix(0.0985793, 0, 0, 0.101421, 0, 3000)"/>
<path fill-rule="evenodd" fill="rgb(100%, 100%, 100%)" fill-opacity="1" d="M 887.765625 1674.828125 C 769.574219 1675.109375 656.011719 1722.121094 570.570312 1806.140625 C 485.128906 1890.148438 434.34375 2004.738281 428.71875 2126.195312 L 1347.949219 2126.195312 C 1342.320312 2004.535156 1291.378906 1889.78125 1205.691406 1805.730469 C 1120 1721.691406 1006.148438 1674.808594 887.765625 1674.828125 Z M 887.765625 1674.828125 "/>
<path fill="none" stroke-width="593.078" stroke-linecap="butt" stroke-linejoin="miter" stroke="rgb(0%, 0%, 0%)" stroke-opacity="1" stroke-miterlimit="4" d="M 9005.598792 -13066.088692 C 7806.651282 -13063.315598 6654.659941 -12599.785178 5787.932279 -11771.400277 C 4921.204616 -10943.092407 4406.034025 -9813.210528 4348.973365 -8615.657445 L 13673.715603 -8615.657445 C 13616.615316 -9815.213319 13099.780456 -10946.712836 12230.596015 -11775.405858 C 11361.411574 -12604.09888 10206.487949 -13066.281268 9005.598792 -13066.088692 Z M 9005.598792 -13066.088692 " transform="matrix(0.0985793, 0, 0, 0.101421, 0, 3000)"/>
<path fill-rule="evenodd" fill="rgb(100%, 100%, 100%)" fill-opacity="1" d="M 1770.578125 1304.769531 C 1770.578125 1457.371094 1650.339844 1581.078125 1502 1581.078125 C 1353.679688 1581.078125 1233.429688 1457.371094 1233.429688 1304.769531 C 1233.429688 1152.160156 1353.679688 1028.449219 1502 1028.449219 C 1650.339844 1028.449219 1770.578125 1152.160156 1770.578125 1304.769531 Z M 1770.578125 1304.769531 "/>
<path fill="none" stroke-width="593.078" stroke-linecap="butt" stroke-linejoin="miter" stroke="rgb(0%, 0%, 0%)" stroke-opacity="1" stroke-miterlimit="4" d="M 17960.912877 -16714.787556 C 17960.912877 -15210.191307 16741.201627 -13990.414954 15236.504076 -13990.414954 C 13731.806525 -13990.414954 12512.016024 -15210.191307 12512.016024 -16714.787556 C 12512.016024 -18219.499352 13731.806525 -19439.31422 15236.504076 -19439.31422 C 16741.201627 -19439.31422 17960.912877 -18219.499352 17960.912877 -16714.787556 Z M 17960.912877 -16714.787556 " transform="matrix(0.0985793, 0, 0, 0.101421, 0, 3000)"/>
<path fill-rule="evenodd" fill="rgb(100%, 100%, 100%)" fill-opacity="1" d="M 1501.429688 1674.828125 C 1383.25 1675.109375 1269.679688 1722.121094 1184.238281 1806.140625 C 1098.800781 1890.148438 1048.011719 2004.738281 1042.390625 2126.195312 L 1961.621094 2126.195312 C 1955.988281 2004.535156 1905.039062 1889.78125 1819.359375 1805.730469 C 1733.671875 1721.691406 1619.820312 1674.808594 1501.429688 1674.828125 Z M 1501.429688 1674.828125 "/>
<path fill="none" stroke-width="593.078" stroke-linecap="butt" stroke-linejoin="miter" stroke="rgb(0%, 0%, 0%)" stroke-opacity="1" stroke-miterlimit="4" d="M 15230.718759 -13066.088692 C 14031.810875 -13063.315598 12879.819534 -12599.785178 12013.01262 -11771.400277 C 11146.284958 -10943.092407 10631.114367 -9813.210528 10574.093331 -8615.657445 L 19898.91482 -8615.657445 C 19841.814534 -9815.213319 19325.019299 -10946.712836 18455.715982 -11775.405858 C 17586.491916 -12604.09888 16431.607916 -13066.281268 15230.718759 -13066.088692 Z M 15230.718759 -13066.088692 " transform="matrix(0.0985793, 0, 0, 0.101421, 0, 3000)"/>
</svg>
